<svg xmlns="http://www.w3.org/2000/svg" viewBox="0 0 960 540" width="960" height="540" fill="none">
  <defs>
    <linearGradient id="bg" x1="0" y1="0" x2="1" y2="1">
      <stop offset="0%" stop-color="#050c1b" />
      <stop offset="55%" stop-color="#081230" />
      <stop offset="100%" stop-color="#040812" />
    </linearGradient>
    <linearGradient id="card" x1="0" y1="0" x2="1" y2="1">
      <stop offset="0%" stop-color="#1c233a" />
      <stop offset="100%" stop-color="#111527" />
    </linearGradient>
  </defs>
  <rect width="960" height="540" rx="32" fill="url(#bg)" />
  <rect x="60" y="60" width="540" height="160" rx="28" fill="url(#card)" stroke="#28304a" stroke-opacity="0.6" />
  <rect x="60" y="250" width="540" height="210" rx="28" fill="url(#card)" stroke="#28304a" stroke-opacity="0.6" />
  <rect x="630" y="60" width="270" height="400" rx="32" fill="url(#card)" stroke="#28304a" stroke-opacity="0.6" />
  <text x="90" y="110" fill="#8ea2ff" font-family="'Space Grotesk', 'IBM Plex Sans', sans-serif" font-size="38" font-weight="600">samplr</text>
  <text x="90" y="150" fill="#94a3b8" font-family="'Space Grotesk', 'IBM Plex Sans', sans-serif" font-size="18">Drag-and-drop audio sampler in the browser</text>
  <rect x="100" y="300" width="460" height="6" rx="3" fill="#1a2238" />
  <rect x="100" y="300" width="260" height="6" rx="3" fill="#5ef4ff" />
  <circle cx="200" cy="390" r="52" fill="#151a2c" stroke="#28304a" stroke-opacity="0.7" />
  <circle cx="200" cy="390" r="8" fill="#5ef4ff" />
  <circle cx="330" cy="390" r="52" fill="#151a2c" stroke="#28304a" stroke-opacity="0.7" />
  <circle cx="330" cy="390" r="8" fill="#ffb347" />
  <circle cx="460" cy="390" r="52" fill="#151a2c" stroke="#28304a" stroke-opacity="0.7" />
  <circle cx="460" cy="390" r="8" fill="#ff5f6d" />
  <rect x="660" y="110" width="210" height="80" rx="18" fill="#151a2c" stroke="#1f263c" />
  <text x="685" y="150" fill="#e2e8f0" font-family="'JetBrains Mono', 'IBM Plex Mono', monospace" font-size="16">Lo-Fi Dust</text>
  <text x="685" y="175" fill="#94a3b8" font-family="'Space Grotesk', 'IBM Plex Sans', sans-serif" font-size="12">Preset selected</text>
  <rect x="660" y="230" width="210" height="80" rx="18" fill="#151a2c" stroke="#1f263c" />
  <rect x="660" y="350" width="210" height="80" rx="18" fill="#151a2c" stroke="#1f263c" />
</svg>
